<?xml version="1.0" encoding="UTF-8" standalone="no"?>
<!-- Created with Inkscape (http://www.inkscape.org/) -->

<svg
   version="1.1"
   id="svg2"
   width="1599"
   height="1599"
   viewBox="0 0 1599 1599"
   sodipodi:docname="hand_pic.svg"
   inkscape:version="1.1.2 (0a00cf5339, 2022-02-04)"
   xmlns:inkscape="http://www.inkscape.org/namespaces/inkscape"
   xmlns:sodipodi="http://sodipodi.sourceforge.net/DTD/sodipodi-0.dtd"
   xmlns="http://www.w3.org/2000/svg"
   xmlns:svg="http://www.w3.org/2000/svg">
  <defs
     id="defs6">
    <inkscape:path-effect
       effect="spiro"
       id="path-effect2534"
       is_visible="true"
       lpeversion="1" />
    <inkscape:path-effect
       effect="skeletal"
       id="path-effect2409"
       is_visible="true"
       lpeversion="1"
       pattern="M 0,18.867925 C 0,8.4528302 8.4528302,0 18.867925,0 c 10.415094,0 18.867924,8.4528302 18.867924,18.867925 0,10.415094 -8.45283,18.867924 -18.867924,18.867924 C 8.4528302,37.735849 0,29.283019 0,18.867925 Z"
       copytype="single_stretched"
       prop_scale="0.1"
       scale_y_rel="false"
       spacing="0"
       normal_offset="0"
       tang_offset="0"
       prop_units="false"
       vertical_pattern="false"
       hide_knot="false"
       fuse_tolerance="0" />
    <inkscape:path-effect
       effect="skeletal"
       id="path-effect2290"
       is_visible="true"
       lpeversion="1"
       pattern="M 0,18.867925 C 0,8.4528302 8.4528302,0 18.867925,0 c 10.415094,0 18.867924,8.4528302 18.867924,18.867925 0,10.415094 -8.45283,18.867924 -18.867924,18.867924 C 8.4528302,37.735849 0,29.283019 0,18.867925 Z"
       copytype="single_stretched"
       prop_scale="0.1"
       scale_y_rel="false"
       spacing="0"
       normal_offset="0"
       tang_offset="0"
       prop_units="false"
       vertical_pattern="false"
       hide_knot="false"
       fuse_tolerance="0" />
  </defs>
  <sodipodi:namedview
     id="namedview4"
     pagecolor="#ffffff"
     bordercolor="#666666"
     borderopacity="1.0"
     inkscape:pageshadow="2"
     inkscape:pageopacity="0.0"
     inkscape:pagecheckerboard="0"
     showgrid="false"
     inkscape:zoom="1.1550737"
     inkscape:cx="403.87032"
     inkscape:cy="266.21677"
     inkscape:window-width="1920"
     inkscape:window-height="1016"
     inkscape:window-x="1920"
     inkscape:window-y="27"
     inkscape:window-maximized="1"
     inkscape:current-layer="layer1" />
  <g
     inkscape:groupmode="layer"
     inkscape:label="Image"
     id="g8" />
  <g
     inkscape:groupmode="layer"
     id="layer1"
     inkscape:label="Image 1">
    <path
       style="fill:none;stroke:#000000;stroke-width:1px;stroke-linecap:butt;stroke-linejoin:miter;stroke-opacity:1"
       d="m 128.55666,485.45444 c 3.8688,-15.6944 10.08035,-30.80917 18.36524,-44.68874 3.58505,-6.00598 7.65407,-12.0431 8.57044,-18.97741 0.59231,-4.48215 -0.19223,-9.042 -1.41466,-13.39472 -1.22242,-4.35272 -2.88107,-8.57367 -4.09491,-12.92879 -3.54402,-12.71561 -3.27701,-26.47459 -8.57044,-38.567 -3.48445,-7.95994 -9.20796,-14.764 -12.85567,-22.65046 -2.79369,-6.04004 -4.30686,-12.57484 -6.12174,-18.97741 -2.16492,-7.63743 -4.77815,-15.13894 -7.3461,-22.65046 -2.57911,-7.54416 -5.14199,-15.1652 -9.18262,-22.03829 -2.52611,-4.29689 -5.59677,-8.24327 -8.570442,-12.24349 -3.289603,-4.42521 -6.55078,-9.01274 -11.019142,-12.24349 -5.270819,-3.81095 -11.76698,-5.41433 -17.753063,-7.95827 -5.850621,-2.48638 -11.500871,-6.13338 -14.69219,-11.63132 -2.252981,-3.88139 -3.120688,-8.4019 -3.673048,-12.85566 -0.382183,-3.0816 -0.609152,-6.32768 0.612175,-9.18262 1.252737,-2.92836 3.902894,-5.07062 6.78772,-6.42059 2.884825,-1.34998 6.033699,-2.01044 9.128819,-2.76203 8.068619,-1.9593 16.239075,-4.6288 24.486983,-3.67305 8.695694,1.00764 16.366468,5.91343 24.486988,9.18262 5.01533,2.01909 10.37055,3.48528 14.69219,6.73392 3.22796,2.4265 5.70373,5.73325 7.68976,9.2494 1.98603,3.51615 3.51799,7.26562 5.1659,10.95236 3.17292,7.09851 6.80253,14.02399 9.18262,21.42611 1.74781,5.43573 2.86893,11.22386 6.12175,15.91654 1.43038,2.06354 3.28286,3.88355 5.54372,4.97567 2.26086,1.09212 4.95573,1.40137 7.31194,0.5339 2.16576,-0.79735 3.90283,-2.5219 5.06864,-4.51368 1.1658,-1.99178 1.80842,-4.24575 2.27746,-6.50546 0.50458,-2.43092 0.82123,-4.8963 1.22435,-7.34609 0.74092,-4.50263 1.77436,-8.95475 2.44869,-13.46784 1.75989,-11.77832 1.06283,-23.88663 3.67305,-35.50613 1.43266,-6.37753 3.84649,-12.52597 4.8974,-18.97741 1.24972,-7.6719 0.53343,-15.50794 0,-23.26264 -0.54688,-7.9502 -0.89811,-15.91249 -1.22435,-23.8748 -0.25913,-6.32456 -0.50222,-12.66751 0,-18.97742 0.54058,-6.79193 1.93931,-13.4813 3.06087,-20.201757 1.70746,-10.231212 2.78366,-20.600606 5.50957,-30.608729 1.73157,-6.357438 4.12096,-12.536363 5.50957,-18.977412 0.51002,-2.365724 0.88457,-4.764879 1.56795,-7.086465 0.68338,-2.321587 1.69972,-4.592316 3.32945,-6.381376 2.40849,-2.643947 5.95396,-4.00555 9.48985,-4.542909 3.53589,-0.537358 7.13546,-0.33833 10.71191,-0.354488 2.94955,-0.01333 5.92158,-0.17244 8.83062,0.314891 2.90905,0.487331 5.81256,1.702124 7.6981,3.970331 1.08206,1.301664 1.78138,2.896226 2.14717,4.548918 0.36579,1.652691 0.40753,3.364868 0.26785,5.051782 -0.27938,3.373827 -1.27139,6.645489 -1.80285,9.988887 -0.99523,6.260971 -0.36219,12.64819 0,18.977412 0.44327,7.746091 0.4766,15.518522 0,23.262634 -0.4666,7.581611 -1.42072,15.124391 -2.4487,22.650461 -0.72293,5.29275 -1.48332,10.58633 -1.83652,15.91654 -0.62221,9.38985 0.0247,18.82636 1.22435,28.16003 1.01957,7.93284 2.43911,15.96951 1.22435,23.87481 -0.35591,2.31615 -0.93824,4.629 -0.79735,6.9681 0.0704,1.16955 0.32724,2.33885 0.85915,3.38282 0.53192,1.04397 1.35053,1.95816 2.3869,2.50474 0.83381,0.43975 1.79054,0.63197 2.73219,0.58816 0.94165,-0.0438 1.86726,-0.31971 2.69896,-0.76343 1.66342,-0.88743 2.91762,-2.41903 3.75146,-4.10995 1.10095,-2.23257 1.5213,-4.74234 1.6726,-7.227 0.1513,-2.48467 0.0469,-4.97867 0.16393,-7.46519 0.30945,-6.57752 2.16124,-13.01107 2.4487,-19.58959 0.25915,-5.93055 -0.74965,-11.97517 0.61217,-17.75306 0.59247,-2.51372 1.61925,-4.90031 2.4487,-7.34609 1.68605,-4.9716 2.55302,-10.17552 3.67305,-15.30437 1.17265,-5.3698 2.6279,-10.67601 4.28522,-15.91654 2.19897,-6.953282 4.75451,-13.79499 6.73392,-20.813933 2.15196,-7.630816 3.61373,-15.438792 4.8974,-23.262634 0.87512,-5.333793 1.67139,-10.693079 3.06087,-15.916539 0.76382,-2.871425 1.70491,-5.693765 2.4487,-8.570444 0.55496,-2.146364 1.04138,-4.408767 2.4487,-6.121746 0.79232,-0.964402 1.84306,-1.699779 2.98471,-2.204239 1.14165,-0.504459 2.37357,-0.784289 3.61418,-0.921206 2.4812,-0.273834 4.98535,0.01481 7.48112,0.06457 2.87224,0.05727 5.753,-0.202219 8.61458,0.05152 2.86158,0.253743 5.78372,1.082078 7.91413,3.009349 1.72072,1.556645 2.79891,3.723273 3.40012,5.964382 0.60121,2.241108 0.75903,4.574364 0.88511,6.891285 0.26634,4.894456 0.40373,9.794926 0.61217,14.692189 0.34746,8.163692 0.89131,16.364659 0,24.486984 -0.69908,6.370592 -2.27405,12.617064 -3.06087,18.977416 -0.40185,3.24845 -0.59722,6.52161 -0.61218,9.79479 -0.0187,4.09473 0.24029,8.23844 -0.61217,12.24349 -0.76675,3.60238 -2.40347,6.94963 -3.67305,10.40697 -2.37844,6.47698 -3.46899,13.35034 -4.28522,20.20176 -0.48848,4.10034 -0.8858,8.22509 -1.83652,12.24349 -0.74366,3.1432 -1.82151,6.19988 -3.06087,9.18262 -0.94621,2.27722 -1.98711,4.51399 -3.06088,6.73392 -2.06694,4.27322 -4.25831,8.48987 -6.12175,12.85567 -0.66363,1.5548 -1.28904,3.14058 -1.59121,4.80386 -0.30216,1.66328 -0.26536,3.4231 0.36686,4.99093 0.3673,0.91087 0.93418,1.74524 1.67153,2.39401 0.73736,0.64877 1.64659,1.10791 2.6137,1.27904 1.48479,0.26273 3.04109,-0.1669 4.30599,-0.98766 1.2649,-0.82076 2.25897,-2.00782 3.0401,-3.29757 2.14543,-3.5424 2.73805,-7.78973 4.28522,-11.63131 1.80891,-4.49149 4.90131,-8.37379 6.73392,-12.85567 1.61372,-3.94655 2.20302,-8.24119 3.67305,-12.24349 2.1164,-5.76211 5.96272,-10.69033 9.18262,-15.91654 2.01708,-3.27392 3.81221,-6.71787 4.8974,-10.40697 1.55599,-5.28958 1.65693,-11.0696 4.28522,-15.91654 2.02758,-3.73915 5.41309,-6.61805 7.34609,-10.40696 1.6012,-3.13854 2.11022,-6.72786 2.17097,-10.25072 0.0608,-3.52286 -0.30202,-7.03998 -0.33444,-10.563219 -0.0327,-3.554054 0.29607,-7.20394 1.83652,-10.406968 1.65257,-3.436165 4.61388,-6.127081 7.95827,-7.95827 3.75864,-2.058008 7.99655,-3.101841 12.24349,-3.673047 1.76444,-0.237314 3.54949,-0.396843 5.32456,-0.260017 1.77506,0.136826 3.54842,0.580793 5.08241,1.484366 2.40877,1.418845 4.06432,3.878779 5.04063,6.498341 0.97631,2.619562 1.34181,5.420449 1.69329,8.193849 0.95247,7.515671 1.85374,15.100855 1.22435,22.650455 -0.48652,5.83582 -1.8834,11.56499 -3.67305,17.14089 -2.18997,6.82314 -4.96865,13.44166 -7.34609,20.20176 -1.84205,5.23775 -3.4424,10.55835 -4.8974,15.91654 -0.5585,2.05673 -1.09685,4.12301 -1.83652,6.12175 -1.87125,5.05652 -4.99558,9.58845 -6.73392,14.69219 -1.35698,3.98409 -1.8347,8.21722 -3.06088,12.24349 -1.0687,3.50916 -2.71008,6.84996 -4.89739,9.79479 -2.33953,3.14976 -5.29058,5.84059 -7.3461,9.18262 -2.0102,3.26834 -3.08142,7.02685 -4.89739,10.40697 -2.09061,3.89132 -5.12373,7.20154 -7.3461,11.01914 -1.13073,1.94237 -2.05311,4.03115 -2.46027,6.24148 -0.40717,2.21033 -0.27625,4.55474 0.62375,6.61419 1.01954,2.33302 3.02414,4.20928 5.40748,5.10489 2.38334,0.89562 5.11329,0.80774 7.44818,-0.2075 2.21249,-0.96202 4.01222,-2.68493 5.52588,-4.56361 1.51366,-1.87868 2.78732,-3.93928 4.26892,-5.84335 2.40365,-3.08904 5.34255,-5.74458 8.57044,-7.95827 5.84931,-4.01146 12.70894,-6.64502 17.75306,-11.63132 4.9225,-4.86607 7.62924,-11.49351 11.63132,-17.14089 5.76577,-8.13614 14.08656,-14.06519 20.81394,-21.42611 1.95164,-2.13543 3.77613,-4.39893 5.92915,-6.33115 2.15301,-1.93223 4.69509,-3.54396 7.53869,-4.07582 1.81073,-0.33868 3.71386,-0.22212 5.44687,0.4025 1.733,0.62461 3.28754,1.76421 4.34792,3.27055 1.52264,2.16301 1.9533,4.94159 1.74466,7.57854 -0.20863,2.63695 -1.00358,5.18657 -1.74466,7.72583 -2.30039,7.88217 -4.15896,15.98351 -7.95827,23.26263 -2.33279,4.4694 -5.35342,8.53916 -7.95827,12.85567 -2.43544,4.03578 -4.56315,8.36144 -7.95827,11.63131 -2.09866,2.02124 -4.60352,3.55911 -7.01224,5.19857 -2.40873,1.63946 -4.78047,3.43653 -6.4556,5.82058 -1.26357,1.79832 -2.0829,3.86289 -2.9359,5.88847 -0.85299,2.02557 -1.76911,4.06254 -3.18585,5.74284 -1.84096,2.18344 -4.4063,3.62186 -6.99987,4.81768 -2.59357,1.19582 -5.29126,2.20632 -7.69232,3.75277 -3.65675,2.35519 -6.4477,5.84324 -8.76568,9.52369 -2.31798,3.68045 -4.22713,7.60575 -6.53868,11.29024 -3.40738,5.43118 -7.64967,10.27899 -11.63132,15.30437 -4.8191,6.08235 -9.27321,12.44872 -13.46784,18.97741 -3.21633,5.00602 -6.2815,10.10931 -9.18262,15.30436 -2.71562,4.86288 -5.28685,9.80488 -7.95827,14.69219 -4.46819,8.17447 -9.21736,16.19723 -13.46784,24.48699 -2.58203,5.03576 -4.97732,10.16483 -7.34609,15.30436 -3.55581,7.71505 -7.05367,15.45743 -10.40697,23.26264 -3.53888,8.23717 -6.96468,16.75426 -7.34609,25.71133 -0.18239,4.28317 0.33928,8.58206 0,12.85566 -0.3496,4.40355 -1.60611,8.68469 -3.06088,12.85567 -1.74827,5.01248 -3.79362,9.92132 -6.12174,14.69219"
       id="path2532"
       inkscape:path-effect="#path-effect2534"
       inkscape:original-d="m 128.55666,485.45444 c 6.12275,-14.89525 12.24449,-29.79149 18.36524,-44.68874 6.12074,-14.89725 5.71463,-12.65061 8.57044,-18.97741 2.85582,-6.32681 -3.67204,-17.54801 -5.50957,-26.32351 -1.83752,-8.7755 -5.71263,-25.71033 -8.57044,-38.567 -2.85782,-12.85667 -8.56945,-15.09931 -12.85567,-22.65046 -4.28622,-7.55115 -4.08016,-12.65061 -6.12174,-18.97741 -2.04159,-6.32681 -4.8964,-15.09931 -7.3461,-22.65046 -2.4497,-7.55115 -6.12074,-14.69119 -9.18262,-22.03829 -3.06187,-7.34709 -5.71263,-8.16132 -8.570442,-12.24349 -2.857815,-4.08216 -7.345095,-8.16133 -11.019142,-12.24349 -3.674048,-4.08216 -11.834376,-5.30451 -17.753063,-7.95827 -5.918688,-2.65376 -9.793793,-7.75321 -14.69219,-11.63132 -4.898397,-3.8781 -2.447698,-8.56944 -3.673048,-12.85566 -1.225349,-4.28622 0.409117,-6.12075 0.612175,-9.18262 0.203058,-3.06187 10.612026,-6.12075 15.916539,-9.18262 5.304513,-3.06187 16.325656,-2.4477 24.486983,-3.67305 8.161328,-1.22535 16.325658,6.12275 24.486988,9.18262 8.16132,3.05987 9.79579,4.49028 14.69219,6.73392 4.89639,2.24364 8.57144,13.46884 12.85566,20.20176 4.28422,6.73292 6.12275,14.28508 9.18262,21.42611 3.05987,7.14104 4.08216,10.61203 6.12175,15.91654 2.03958,5.30452 8.57144,3.67405 12.85566,5.50957 4.28422,1.83553 4.8984,-7.34509 7.3461,-11.01914 2.4477,-3.67405 0.81723,-4.8964 1.22435,-7.34609 0.40711,-2.4497 1.63346,-8.97756 2.44869,-13.46784 0.81524,-4.49028 2.4497,-23.66975 3.67305,-35.50613 1.22335,-11.83637 3.26593,-12.65061 4.8974,-18.97741 1.63146,-6.32681 0.001,-15.50742 0,-23.26264 -0.001,-7.75521 -0.81523,-15.91553 -1.22435,-23.8748 -0.40912,-7.95927 10e-4,-12.65061 0,-18.97742 -0.001,-6.3268 2.04158,-13.46684 3.06087,-20.201757 1.01929,-6.734921 3.67405,-20.40482 5.50957,-30.608729 1.83553,-10.20391 3.67405,-12.650608 5.50957,-18.977412 1.83553,-6.326804 3.26594,-8.977561 4.8974,-13.467841 1.63147,-4.49028 13.46884,-3.263931 20.20176,-4.897397 6.73292,-1.633465 11.02015,2.857815 16.52872,4.285222 5.50857,1.427408 0.40911,13.060725 0.61217,19.589587 0.20306,6.528862 0.001,12.652608 0,18.977412 -0.001,6.324804 0.001,15.509423 0,23.262634 -0.001,7.753211 -1.63146,15.101311 -2.4487,22.650461 -0.81723,7.54915 -1.22335,10.61202 -1.83652,15.91654 -0.61318,5.30451 0.81723,18.77435 1.22435,28.16003 0.40711,9.38567 0.81723,15.91754 1.22435,23.87481 0.40711,7.95727 1.63346,8.57144 2.4487,12.85566 0.81523,4.28422 6.12274,-2.85581 9.18261,-4.28522 3.05988,-1.42941 1.22535,-9.79379 1.83653,-14.69219 0.61117,-4.8984 1.63346,-13.05872 2.4487,-19.58959 0.81523,-6.53086 0.40911,-11.83437 0.61217,-17.75306 0.20306,-5.91869 1.63347,-4.8964 2.4487,-7.34609 0.81523,-2.4497 2.4497,-10.20191 3.67305,-15.30437 1.22335,-5.10245 2.85781,-10.61002 4.28522,-15.91654 1.42741,-5.30651 4.49028,-13.874954 6.73392,-20.813933 2.24364,-6.938978 3.26593,-15.507422 4.8974,-23.262634 1.63146,-7.755211 2.04158,-10.610026 3.06087,-15.916539 1.01929,-5.306513 1.63346,-5.712629 2.4487,-8.570444 0.81523,-2.857815 1.63346,-4.080164 2.4487,-6.121746 0.81523,-2.041582 9.38767,-2.039582 14.08001,-3.060873 4.69234,-1.02129 11.02014,2.041582 16.52871,3.060873 5.50858,1.019291 2.85782,8.571444 4.28523,12.855667 1.4274,4.284222 0.40911,9.795793 0.61217,14.692189 0.20306,4.896397 0.001,16.325656 0,24.486984 -10e-4,8.161327 -2.03958,12.652608 -3.06087,18.977416 -1.02129,6.3248 -0.40712,6.53086 -0.61218,9.79479 -0.20505,3.26393 -0.40711,8.16333 -0.61217,12.24349 -0.20506,4.08016 -2.4477,6.93898 -3.67305,10.40697 -1.22535,3.46799 -2.85581,13.46884 -4.28522,20.20176 -1.42941,6.73292 -1.22335,8.16333 -1.83652,12.24349 -0.61318,4.08016 -2.65176,6.53086 -3.06087,9.18262 -0.40912,2.65176 -1.42741,4.08216 -3.06088,6.73392 -1.63347,2.65176 -4.08016,8.57144 -6.12175,12.85567 -2.04158,4.28422 -0.81523,6.53086 -1.22435,9.79479 -0.40911,3.26393 2.85782,2.4497 4.28523,3.67305 1.4274,1.22335 4.89839,-2.85582 7.34609,-4.28523 2.4477,-1.4294 2.85782,-7.75321 4.28522,-11.63131 1.42741,-3.87811 4.49028,-8.56945 6.73392,-12.85567 2.24364,-4.28622 2.4497,-8.16133 3.67305,-12.24349 1.22335,-4.08216 6.12275,-10.61003 9.18262,-15.91654 3.05987,-5.30651 3.26593,-6.93698 4.8974,-10.40697 1.63146,-3.46999 2.85781,-10.61002 4.28522,-15.91654 1.42741,-5.30651 4.8984,-6.93697 7.34609,-10.40696 2.4477,-3.46999 1.22535,-13.87496 1.83653,-20.813939 0.61117,-6.938979 1.22535,-6.936979 1.83652,-10.406968 0.61118,-3.46999 5.30651,-5.304513 7.95827,-7.95827 2.65176,-2.653756 8.16333,-2.447698 12.24349,-3.673047 4.08017,-1.225349 6.93898,0.817233 10.40697,1.224349 3.46799,0.407116 4.49028,9.795793 6.73392,14.69219 2.24364,4.896396 0.81723,15.101305 1.22435,22.650455 0.40712,7.54916 -2.4477,11.42826 -3.67305,17.14089 -1.22535,5.71263 -4.89639,13.46884 -7.34609,20.20176 -2.4497,6.73292 -3.26393,10.61203 -4.8974,15.91654 -1.63346,5.30452 -1.22335,4.08217 -1.83652,6.12175 -0.61318,2.03958 -4.48828,9.79579 -6.73392,14.69219 -2.24564,4.89639 -2.03959,8.16333 -3.06088,12.24349 -1.02129,4.08016 -3.26393,6.53086 -4.89739,9.79479 -1.63347,3.26393 -4.8964,6.12275 -7.3461,9.18262 -2.4497,3.05987 -3.26393,6.93898 -4.89739,10.40697 -1.63347,3.46799 -4.8964,7.34709 -7.3461,11.01914 -2.4497,3.67205 -1.22335,8.57145 -1.83652,12.85567 -0.61318,4.28422 8.57144,3.26593 12.85566,4.89739 4.28423,1.63147 6.53087,-6.93697 9.7948,-10.40696 3.26393,-3.46999 5.71463,-5.30452 8.57044,-7.95827 2.85582,-2.65376 11.83638,-7.75321 17.75306,-11.63132 5.91669,-3.87811 7.75521,-11.42626 11.63132,-17.14089 3.87611,-5.71463 13.87696,-14.28307 20.81394,-21.42611 6.93697,-7.14303 8.97956,-6.93698 13.46784,-10.40697 4.48828,-3.46999 6.53086,2.4497 9.79479,3.67305 3.26393,1.22335 10e-4,10.20391 0,15.30437 -10e-4,5.10045 -5.30451,15.50942 -7.95827,23.26263 -2.65376,7.75321 -5.30451,8.57144 -7.95827,12.85567 -2.65376,4.28422 -5.30451,7.75521 -7.95827,11.63131 -2.65376,3.87611 -8.97756,7.3471 -13.46784,11.01915 -4.49028,3.67204 -4.08016,7.75521 -6.12175,11.63131 -2.04158,3.87611 -9.79379,5.71463 -14.69219,8.57045 -4.89839,2.85581 -10.2019,13.87695 -15.30436,20.81393 -5.10245,6.93698 -7.75321,10.20391 -11.63132,15.30437 -3.8781,5.10045 -8.97756,12.65261 -13.46784,18.97741 -4.49028,6.3248 -6.12074,10.20391 -9.18262,15.30436 -3.06187,5.10046 -5.30451,9.7958 -7.95827,14.69219 -2.65375,4.8964 -8.97756,16.32566 -13.46784,24.48699 -4.49028,8.16132 -4.89639,10.20391 -7.34609,15.30436 -2.4497,5.10046 -6.93698,15.50942 -10.40697,23.26264 -3.46999,7.75321 -4.8964,17.14188 -7.34609,25.71133 -2.4497,8.56944 10e-4,8.57144 0,12.85566 -0.001,4.28423 -2.03959,8.57145 -3.06088,12.85567 -1.02129,4.28422 -4.08016,9.79579 -6.12174,14.69219"
       sodipodi:nodetypes="cssssssssssssssssssssssssssssssssssssssssssssssssssssssssssssssssssssssssssssssssssssssssssssssssssssssssssssssssssssssssssssc" />
  </g>
</svg>
